# xmcd CD database file
#
# Track frame offsets:
#	150
#	17587
#	43087
#
# Disc length: 781 seconds
#
# Revision: 0
# Processed by: cddbd v1.5.1PL0 Copyright (c) Steve Scherf et al.
# Submitted via: CDex 1.50
#
DISCID=1b030b03
DTITLE=及川光博 - 悲しみロケット2号
DYEAR=1996
DGENRE=JPop
TTITLE0=悲しみロケット2号
TTITLE1=展望デッキ
TTITLE2=血管と白夜
EXTD=YEAR: 1996.11.7
EXTT0=
EXTT1=
EXTT2=
PLAYORDER=
